<mxfile host="app.diagrams.net" modified="2022-07-20T12:28:53.635Z" agent="5.0 (Windows NT 10.0; Win64; x64) AppleWebKit/537.36 (KHTML, like Gecko) Chrome/103.0.0.0 Safari/537.36" etag="jF5ScrLblU0fe5frnGnz" version="20.1.1" type="github">
  <diagram id="HEKm_T6-IhRAq85mvWcf" name="Sayfa -1">
    <mxGraphModel dx="862" dy="460" grid="1" gridSize="10" guides="1" tooltips="1" connect="1" arrows="1" fold="1" page="1" pageScale="1" pageWidth="827" pageHeight="1169" background="#F1FAEE" math="0" shadow="0">
      <root>
        <mxCell id="0" />
        <mxCell id="1" parent="0" />
        <mxCell id="5n8UnpA-zBXjOVWRpKqm-11" style="edgeStyle=none;rounded=0;orthogonalLoop=1;jettySize=auto;html=1;entryX=0.5;entryY=0;entryDx=0;entryDy=0;labelBackgroundColor=#F1FAEE;strokeColor=#457B9D;fontColor=#1D3557;" edge="1" parent="1" source="5n8UnpA-zBXjOVWRpKqm-1" target="5n8UnpA-zBXjOVWRpKqm-3">
          <mxGeometry relative="1" as="geometry" />
        </mxCell>
        <mxCell id="5n8UnpA-zBXjOVWRpKqm-1" value="Başla" style="ellipse;whiteSpace=wrap;html=1;fillColor=#A8DADC;strokeColor=#457B9D;fontColor=#1D3557;rounded=0;" vertex="1" parent="1">
          <mxGeometry x="220" y="20" width="120" height="80" as="geometry" />
        </mxCell>
        <mxCell id="5n8UnpA-zBXjOVWRpKqm-2" value="Bitti" style="ellipse;whiteSpace=wrap;html=1;fillColor=#A8DADC;strokeColor=#457B9D;fontColor=#1D3557;rounded=0;" vertex="1" parent="1">
          <mxGeometry x="220" y="810" width="120" height="80" as="geometry" />
        </mxCell>
        <mxCell id="5n8UnpA-zBXjOVWRpKqm-12" value="" style="edgeStyle=none;rounded=0;orthogonalLoop=1;jettySize=auto;html=1;labelBackgroundColor=#F1FAEE;strokeColor=#457B9D;fontColor=#1D3557;" edge="1" parent="1" source="5n8UnpA-zBXjOVWRpKqm-3" target="5n8UnpA-zBXjOVWRpKqm-4">
          <mxGeometry relative="1" as="geometry" />
        </mxCell>
        <mxCell id="5n8UnpA-zBXjOVWRpKqm-3" value="Yolun soluna bak" style="rounded=0;whiteSpace=wrap;html=1;fillColor=#A8DADC;strokeColor=#457B9D;fontColor=#1D3557;" vertex="1" parent="1">
          <mxGeometry x="220" y="140" width="120" height="60" as="geometry" />
        </mxCell>
        <mxCell id="5n8UnpA-zBXjOVWRpKqm-13" value="" style="edgeStyle=none;rounded=0;orthogonalLoop=1;jettySize=auto;html=1;labelBackgroundColor=#F1FAEE;strokeColor=#457B9D;fontColor=#1D3557;" edge="1" parent="1" source="5n8UnpA-zBXjOVWRpKqm-4" target="5n8UnpA-zBXjOVWRpKqm-5">
          <mxGeometry relative="1" as="geometry" />
        </mxCell>
        <mxCell id="5n8UnpA-zBXjOVWRpKqm-14" value="" style="edgeStyle=none;rounded=0;orthogonalLoop=1;jettySize=auto;html=1;labelBackgroundColor=#F1FAEE;strokeColor=#457B9D;fontColor=#1D3557;" edge="1" parent="1" source="5n8UnpA-zBXjOVWRpKqm-4" target="5n8UnpA-zBXjOVWRpKqm-6">
          <mxGeometry relative="1" as="geometry" />
        </mxCell>
        <mxCell id="5n8UnpA-zBXjOVWRpKqm-4" value="Araba geliyor &lt;br&gt;mu?" style="rhombus;whiteSpace=wrap;html=1;fillColor=#A8DADC;strokeColor=#457B9D;fontColor=#1D3557;rounded=0;" vertex="1" parent="1">
          <mxGeometry x="230" y="240" width="100" height="90" as="geometry" />
        </mxCell>
        <mxCell id="5n8UnpA-zBXjOVWRpKqm-5" value="Bekle" style="rounded=0;whiteSpace=wrap;html=1;fillColor=#A8DADC;strokeColor=#457B9D;fontColor=#1D3557;" vertex="1" parent="1">
          <mxGeometry x="370" y="250" width="120" height="60" as="geometry" />
        </mxCell>
        <mxCell id="5n8UnpA-zBXjOVWRpKqm-15" value="" style="edgeStyle=none;rounded=0;orthogonalLoop=1;jettySize=auto;html=1;labelBackgroundColor=#F1FAEE;strokeColor=#457B9D;fontColor=#1D3557;" edge="1" parent="1" source="5n8UnpA-zBXjOVWRpKqm-6" target="5n8UnpA-zBXjOVWRpKqm-7">
          <mxGeometry relative="1" as="geometry" />
        </mxCell>
        <mxCell id="5n8UnpA-zBXjOVWRpKqm-6" value="Refüje geç" style="rounded=0;whiteSpace=wrap;html=1;fillColor=#A8DADC;strokeColor=#457B9D;fontColor=#1D3557;" vertex="1" parent="1">
          <mxGeometry x="220" y="370" width="120" height="60" as="geometry" />
        </mxCell>
        <mxCell id="5n8UnpA-zBXjOVWRpKqm-16" value="" style="edgeStyle=none;rounded=0;orthogonalLoop=1;jettySize=auto;html=1;labelBackgroundColor=#F1FAEE;strokeColor=#457B9D;fontColor=#1D3557;" edge="1" parent="1" source="5n8UnpA-zBXjOVWRpKqm-7" target="5n8UnpA-zBXjOVWRpKqm-8">
          <mxGeometry relative="1" as="geometry" />
        </mxCell>
        <mxCell id="5n8UnpA-zBXjOVWRpKqm-7" value="Yolun sağına bak" style="rounded=0;whiteSpace=wrap;html=1;fillColor=#A8DADC;strokeColor=#457B9D;fontColor=#1D3557;" vertex="1" parent="1">
          <mxGeometry x="220" y="470" width="120" height="60" as="geometry" />
        </mxCell>
        <mxCell id="5n8UnpA-zBXjOVWRpKqm-17" value="" style="edgeStyle=none;rounded=0;orthogonalLoop=1;jettySize=auto;html=1;labelBackgroundColor=#F1FAEE;strokeColor=#457B9D;fontColor=#1D3557;" edge="1" parent="1" source="5n8UnpA-zBXjOVWRpKqm-8" target="5n8UnpA-zBXjOVWRpKqm-9">
          <mxGeometry relative="1" as="geometry" />
        </mxCell>
        <mxCell id="5n8UnpA-zBXjOVWRpKqm-18" value="" style="edgeStyle=none;rounded=0;orthogonalLoop=1;jettySize=auto;html=1;labelBackgroundColor=#F1FAEE;strokeColor=#457B9D;fontColor=#1D3557;" edge="1" parent="1" source="5n8UnpA-zBXjOVWRpKqm-8" target="5n8UnpA-zBXjOVWRpKqm-10">
          <mxGeometry relative="1" as="geometry" />
        </mxCell>
        <mxCell id="5n8UnpA-zBXjOVWRpKqm-8" value="Araba geliyor &lt;br&gt;mu?" style="rhombus;whiteSpace=wrap;html=1;fillColor=#A8DADC;strokeColor=#457B9D;fontColor=#1D3557;rounded=0;" vertex="1" parent="1">
          <mxGeometry x="230" y="580" width="100" height="90" as="geometry" />
        </mxCell>
        <mxCell id="5n8UnpA-zBXjOVWRpKqm-9" value="Bekle" style="rounded=0;whiteSpace=wrap;html=1;fillColor=#A8DADC;strokeColor=#457B9D;fontColor=#1D3557;" vertex="1" parent="1">
          <mxGeometry x="390" y="590" width="120" height="60" as="geometry" />
        </mxCell>
        <mxCell id="5n8UnpA-zBXjOVWRpKqm-19" value="" style="edgeStyle=none;rounded=0;orthogonalLoop=1;jettySize=auto;html=1;labelBackgroundColor=#F1FAEE;strokeColor=#457B9D;fontColor=#1D3557;" edge="1" parent="1" source="5n8UnpA-zBXjOVWRpKqm-10" target="5n8UnpA-zBXjOVWRpKqm-2">
          <mxGeometry relative="1" as="geometry" />
        </mxCell>
        <mxCell id="5n8UnpA-zBXjOVWRpKqm-10" value="Karşıya geç" style="rounded=0;whiteSpace=wrap;html=1;fillColor=#A8DADC;strokeColor=#457B9D;fontColor=#1D3557;" vertex="1" parent="1">
          <mxGeometry x="220" y="710" width="120" height="60" as="geometry" />
        </mxCell>
        <mxCell id="5n8UnpA-zBXjOVWRpKqm-20" value="Hayır" style="text;html=1;strokeColor=none;fillColor=none;align=center;verticalAlign=middle;whiteSpace=wrap;rounded=0;fontColor=#1D3557;" vertex="1" parent="1">
          <mxGeometry x="310" y="250" width="60" height="30" as="geometry" />
        </mxCell>
        <mxCell id="5n8UnpA-zBXjOVWRpKqm-21" value="Evet" style="text;html=1;strokeColor=none;fillColor=none;align=center;verticalAlign=middle;whiteSpace=wrap;rounded=0;fontColor=#1D3557;" vertex="1" parent="1">
          <mxGeometry x="220" y="330" width="60" height="30" as="geometry" />
        </mxCell>
        <mxCell id="5n8UnpA-zBXjOVWRpKqm-22" value="Evet" style="text;html=1;strokeColor=none;fillColor=none;align=center;verticalAlign=middle;whiteSpace=wrap;rounded=0;fontColor=#1D3557;" vertex="1" parent="1">
          <mxGeometry x="330" y="590" width="60" height="30" as="geometry" />
        </mxCell>
        <mxCell id="5n8UnpA-zBXjOVWRpKqm-23" value="Hayır" style="text;html=1;strokeColor=none;fillColor=none;align=center;verticalAlign=middle;whiteSpace=wrap;rounded=0;fontColor=#1D3557;" vertex="1" parent="1">
          <mxGeometry x="230" y="670" width="60" height="30" as="geometry" />
        </mxCell>
      </root>
    </mxGraphModel>
  </diagram>
</mxfile>
